<?xml version="1.0" encoding="UTF-8"?>
<svg version="1.1" xmlns="http://www.w3.org/2000/svg" width="500" height="500">
<path d="M0 0 C25.68424062 21.19908218 43.33290589 48.61409498 47.33203125 82.16015625 C50.0495809 115.57465738 42.24349786 147.90718894 20.43359375 173.9453125 C-0.70233403 198.36661765 -29.19797047 213.67494684 -61.3828125 217.16015625 C-93.58607379 219.05211036 -125.85298326 210.8809244 -150.3828125 189.16015625 C-151.34703125 188.33902344 -152.31125 187.51789063 -153.3046875 186.671875 C-177.83984751 165.39581056 -190.97806261 135.23806237 -193.3828125 103.16015625 C-195.24935675 70.39908649 -183.53240362 39.67515489 -162.1171875 15.11889648 C-121.0778836 -30.39558151 -48.76297875 -37.27625883 0 0 Z M-140.3828125 29.16015625 C-141.01960938 29.74539062 -141.65640625 30.330625 -142.3125 30.93359375 C-158.22326513 45.99578474 -167.50807841 69.35567273 -168.5703125 90.9765625 C-169.21882881 118.64771188 -160.19196172 143.42582082 -141.23608398 163.75854492 C-124.96174047 180.5650635 -102.16507105 191.63190154 -78.6328125 192.36328125 C-50.57633464 192.78171642 -25.39006738 184.21649606 -4.9375 164.69970703 C11.95942033 147.96729817 22.70340339 124.82262804 22.9465332 100.86499023 C22.94097412 99.91052002 22.93541504 98.9560498 22.9296875 97.97265625 C22.92477295 96.965979 22.9198584 95.95930176 22.91479492 94.92211914 C22.57282158 73.0060121 14.89782758 51.88272397 0.6171875 35.16015625 C0.00101563 34.41121094 -0.61515625 33.66226563 -1.25 32.890625 C-16.4818961 14.93656273 -39.14899686 3.91795159 -62.3828125 1.16015625 C-92.72027666 -0.88459235 -118.37768498 8.07510374 -140.3828125 29.16015625 Z " fill="#3F06B4" transform="translate(322.3828125,132.83984375)"/>
<path d="M0 0 C11.89946977 11.07168056 17.83501063 24.65014884 18.68359375 40.96484375 C18.05533898 57.51799125 11.018421 70.71189932 -0.75390625 82.08984375 C-12.83735063 92.60819439 -28.0361975 94.3793237 -43.41015625 93.33349609 C-48.60295892 92.79366098 -53.08382317 91.37141106 -57.75390625 89.08984375 C-58.60855469 88.67734375 -59.46320313 88.26484375 -60.34375 87.83984375 C-72.7884458 81.09017823 -81.36579772 70.27108506 -86.12890625 57.08984375 C-90.03437142 43.15816337 -88.76197446 28.02813454 -82.24609375 15.09765625 C-74.94492198 2.83847946 -63.79440513 -7.25676113 -49.75390625 -10.91015625 C-31.81715563 -14.98041889 -14.2118721 -12.21084051 0 0 Z " fill="#39B5FD" transform="translate(284.75390625,188.91015625)"/>
<path d="M0 0 C-0.32979683 3.07810378 -0.95000739 3.955412 -3.3125 6.0625 C-4.199375 6.701875 -5.08625 7.34125 -6 8 C-6.721875 8.5775 -7.44375 9.155 -8.1875 9.75 C-10 11 -10 11 -12 11 C-12.433125 12.2065625 -12.433125 12.2065625 -12.875 13.4375 C-14 16 -14 16 -16 17 C-16.99 17 -17.98 17 -19 17 C-22.14358667 17.44908381 -24.88337316 18.32260588 -27.8125 19.5 C-31.8813178 21.08877647 -35.65840688 21.61235776 -40 22 C-36.91208894 20.3810185 -33.73186915 19.03686449 -30.51733398 17.69116211 C-21.17986352 13.746385 -12.62720837 9.27523722 -4.9375 2.5625 C-2 0 -2 0 0 0 Z " fill="#3A0EA1" transform="translate(315,300)"/>
<path d="M0 0 C0.33 0 0.66 0 1 0 C1.02688151 1.64574566 1.04634123 3.29161413 1.0625 4.9375 C1.07410156 5.85402344 1.08570313 6.77054688 1.09765625 7.71484375 C1 10 1 10 0 11 C-0.15971977 13.37338639 -0.2592433 15.72118272 -0.31640625 18.09765625 C-0.33718735 18.80651474 -0.35796844 19.51537323 -0.37937927 20.24571228 C-0.44494598 22.51787305 -0.5037923 24.79015264 -0.5625 27.0625 C-0.60567849 28.59962183 -0.64929255 30.1367315 -0.69335938 31.67382812 C-0.80063449 35.4490959 -0.90188137 39.2244836 -1 43 C-0.34 43 0.32 43 1 43 C1.06058594 43.71027344 1.12117187 44.42054688 1.18359375 45.15234375 C1.26738281 46.07144531 1.35117188 46.99054688 1.4375 47.9375 C1.51871094 48.85402344 1.59992188 49.77054688 1.68359375 50.71484375 C1.76044976 52.96159732 1.76044976 52.96159732 3 54 C3.07205511 55.68608966 3.08386068 57.37500659 3.0625 59.0625 C3.05347656 59.98160156 3.04445312 60.90070313 3.03515625 61.84765625 C3.02355469 62.55792969 3.01195312 63.26820313 3 64 C-7.37824685 46.11886473 -3.51707568 19.26017635 0 0 Z " fill="#3B1398" transform="translate(132,201)"/>
<path d="M0 0 C0.99 0.33 1.98 0.66 3 1 C3 1.99 3 2.98 3 4 C5.475 4.99 5.475 4.99 8 6 C7.67 6.66 7.34 7.32 7 8 C6.95977609 10.3329866 6.95679753 12.66706666 7 15 C7.66 15 8.32 15 9 15 C10.42002108 21.7831364 11.22731216 28.06697907 11 35 C10.67 35 10.34 35 10 35 C9.76216797 33.61941406 9.76216797 33.61941406 9.51953125 32.2109375 C7.82829156 23.03526137 5.31419275 14.73940595 2 6 C1.32371256 4.00323268 0.65399534 2.00417927 0 0 Z " fill="#3B1497" transform="translate(334,184)"/>
<path d="M0 0 C0.66 0 1.32 0 2 0 C2.66 1.32 3.32 2.64 4 4 C4.598125 3.814375 5.19625 3.62875 5.8125 3.4375 C8 3 8 3 11 4 C10.731875 5.051875 10.46375 6.10375 10.1875 7.1875 C9.5625 11.14583333 9.5625 11.14583333 12.4375 13.9375 C13.283125 14.618125 14.12875 15.29875 15 16 C14.67 16.66 14.34 17.32 14 18 C2.91005291 7.29100529 2.91005291 7.29100529 0 2 C0 1.34 0 0.68 0 0 Z " fill="#3FB4F6" transform="translate(203,254)"/>
<path d="M0 0 C0.33 0 0.66 0 1 0 C1.904053 6.96482431 2.19193218 13.79192131 2.1875 20.8125 C2.18814453 21.86824219 2.18878906 22.92398438 2.18945312 24.01171875 C2.14066787 31.19645638 1.72004102 37.99697585 0 45 C-0.33 45 -0.66 45 -1 45 C-1.02693575 42.87506859 -1.04636628 40.75004088 -1.0625 38.625 C-1.07410156 37.44164062 -1.08570313 36.25828125 -1.09765625 35.0390625 C-1 32 -1 32 0 30 C0.08573394 27.74879258 0.10712188 25.49500697 0.09765625 23.2421875 C0.0962413 22.57913605 0.09482635 21.91608459 0.09336853 21.23294067 C0.08776754 19.11358137 0.075215 16.99432741 0.0625 14.875 C0.05748512 13.43880361 0.05292219 12.00260556 0.04882812 10.56640625 C0.03779782 7.04423655 0.02053259 3.52212855 0 0 Z " fill="#441C99" transform="translate(368,210)"/>
<path d="M0 0 C5.96260189 4.82082706 10.96679794 10.22494276 16 16 C15.67 16.66 15.34 17.32 15 18 C10.18666667 14.45333333 10.18666667 14.45333333 9.125 11.875 C8.01572383 9.57079776 8.01572383 9.57079776 4.375 8.75 C3.26125 8.5025 2.1475 8.255 1 8 C0.67 5.36 0.34 2.72 0 0 Z " fill="#3C0E9F" transform="translate(329,139)"/>
<path d="M0 0 C11.7812416 -0.35640731 23.30024254 0.74059296 35 2 C35 2.33 35 2.66 35 3 C10.01734161 3.41277905 10.01734161 3.41277905 0 1 C0 0.67 0 0.34 0 0 Z " fill="#3A1498" transform="translate(226,347)"/>
<path d="M0 0 C7.33333333 1.33333333 14.66666667 2.66666667 22 4 C22 4.33 22 4.66 22 5 C20.9275 5.12375 19.855 5.2475 18.75 5.375 C15.62136385 5.89643936 13.66519576 6.40088254 11 8 C11 7.34 11 6.68 11 6 C7.49461443 4.03698408 3.86648272 3.04097612 0 2 C0 1.34 0 0.68 0 0 Z " fill="#3D11A1" transform="translate(217,320)"/>
<path d="M0 0 C0.33 0.66 0.66 1.32 1 2 C0.34 2 -0.32 2 -1 2 C-1.1546875 2.8353125 -1.1546875 2.8353125 -1.3125 3.6875 C-2.15531466 6.52242204 -3.25558821 8.60950977 -5 11 C-6.9375 11.6875 -6.9375 11.6875 -9 12 C-10.34448813 12.64387413 -11.67958824 13.30809321 -13 14 C-9.20962911 8.52964787 -5.24972347 4.10037573 0 0 Z " fill="#370BA1" transform="translate(170,139)"/>
<path d="M0 0 C0.33 1.32 0.66 2.64 1 4 C0.34 4 -0.32 4 -1 4 C-0.67 5.32 -0.34 6.64 0 8 C-1.41468311 8.96125903 -2.8318364 9.91888325 -4.25 10.875 C-5.43335938 11.67550781 -5.43335938 11.67550781 -6.640625 12.4921875 C-8.71555692 13.81822015 -10.77614972 14.94928175 -13 16 C-8.93866463 10.40636594 -4.6208599 5.14036486 0 0 Z " fill="#39109E" transform="translate(328,284)"/>
<path d="M0 0 C0.33 0.66 0.66 1.32 1 2 C1.66 2 2.32 2 3 2 C2.71682074 3.60568666 2.42312209 5.20952047 2.125 6.8125 C1.96257812 7.70582031 1.80015625 8.59914063 1.6328125 9.51953125 C1 12 1 12 -1 15 C-1.335939 13.5422647 -1.66866624 12.08378894 -2 10.625 C-2.185625 9.81289063 -2.37125 9.00078125 -2.5625 8.1640625 C-3 6 -3 6 -3 4 C-2.01 4 -1.02 4 0 4 C0 2.68 0 1.36 0 0 Z " fill="#3B0DA4" transform="translate(364,254)"/>
<path d="M0 0 C0.598125 0.309375 1.19625 0.61875 1.8125 0.9375 C4.08956772 2.10209704 4.08956772 2.10209704 7 3 C6.67 2.01 6.34 1.02 6 0 C9 1 9 1 10 3 C9.67 3.66 9.34 4.32 9 5 C9.99 5.33 10.98 5.66 12 6 C11.34 7.32 10.68 8.64 10 10 C8.33037631 8.52417192 6.6643694 7.04425109 5 5.5625 C4.071875 4.73878906 3.14375 3.91507812 2.1875 3.06640625 C1.465625 2.38449219 0.74375 1.70257813 0 1 C0 0.67 0 0.34 0 0 Z " fill="#390BA3" transform="translate(165,315)"/>
<path d="M0 0 C4.18423892 3.50897269 8.19588166 7.08060535 12 11 C8.64404172 10.40072174 6.62198774 9.15377564 4 7 C3.34 7.66 2.68 8.32 2 9 C1.01 8.01 0.02 7.02 -1 6 C-0.01 5.01 0.98 4.02 2 3 C1.01 2.67 0.02 2.34 -1 2 C-0.67 1.34 -0.34 0.68 0 0 Z " fill="#3B0D9F" transform="translate(179,294)"/>
<path d="M0 0 C0.99 0.33 1.98 0.66 3 1 C-1.01254885 4.51098025 -5.20983041 6.76537994 -10 9 C-10 7.35 -10 5.7 -10 4 C-8.68 4 -7.36 4 -6 4 C-6 3.34 -6 2.68 -6 2 C-4.35 2.33 -2.7 2.66 -1 3 C-0.67 2.01 -0.34 1.02 0 0 Z " fill="#390DA0" transform="translate(314,328)"/>
<path d="M0 0 C0.66 0 1.32 0 2 0 C2.87144869 1.5529276 3.72153657 3.11785436 4.5625 4.6875 C5.03816406 5.55761719 5.51382813 6.42773438 6.00390625 7.32421875 C7.14268368 10.38328753 6.92718689 11.91863039 6 15 C2.35219334 10.8310781 0 5.55196264 0 0 Z " fill="#3B0EA5" transform="translate(135,265)"/>
<path d="M0 0 C0.33 0 0.66 0 1 0 C0.91299202 2.43922361 0.80613998 4.87478414 0.6875 7.3125 C0.66494141 8.00279297 0.64238281 8.69308594 0.61914062 9.40429688 C0.34474454 14.56793231 0.34474454 14.56793231 -1.48046875 16.85546875 C-1.98191406 17.23316406 -2.48335938 17.61085938 -3 18 C-3.33 18.66 -3.66 19.32 -4 20 C-4.66 20 -5.32 20 -6 20 C-4 13.33333333 -2 6.66666667 0 0 Z " fill="#381197" transform="translate(342,252)"/>
<path d="M0 0 C-0.66 0.66 -1.32 1.32 -2 2 C-2.66 1.67 -3.32 1.34 -4 1 C-4 1.66 -4 2.32 -4 3 C-4.763125 3.28875 -5.52625 3.5775 -6.3125 3.875 C-9.15029308 4.96269013 -9.15029308 4.96269013 -12 7 C-14.1875 6.625 -14.1875 6.625 -16 6 C-14.75146327 5.20602761 -13.50109957 4.41492783 -12.25 3.625 C-11.20585937 2.96371094 -11.20585937 2.96371094 -10.140625 2.2890625 C-3.97934783 -1.42119565 -3.97934783 -1.42119565 0 0 Z " fill="#4CB1EC" transform="translate(235,180)"/>
<path d="M0 0 C3.63559661 3.43361902 6.36113346 6.7973607 9 11 C4.25 10.125 4.25 10.125 2 9 C2 8.34 2 7.68 2 7 C1.34 6.67 0.68 6.34 0 6 C0 4.02 0 2.04 0 0 Z " fill="#390E99" transform="translate(170,283)"/>
<path d="M0 0 C0.66 0.33 1.32 0.66 2 1 C-2.85108983 5.68938684 -9.1050292 7.89180637 -15.8125 8.078125 C-16.534375 8.05234375 -17.25625 8.0265625 -18 8 C-14.35733836 6.12375468 -10.62664028 4.45625992 -6.875 2.8125 C-6.24207031 2.52697266 -5.60914063 2.24144531 -4.95703125 1.94726562 C-3.32989902 1.23733851 -1.66648146 0.61187853 0 0 Z " fill="#381591" transform="translate(293,314)"/>
<path d="M0 0 C-1.81309003 3.77727089 -3.9073259 7.37269822 -6 11 C-7 8 -7 8 -6.0625 5.8125 C-5.711875 5.214375 -5.36125 4.61625 -5 4 C-5.99 3.67 -6.98 3.34 -8 3 C-7 1 -7 1 -5.125 0.375 C-3 0 -3 0 0 0 Z " fill="#3B0D9E" transform="translate(172,173)"/>
<path d="M0 0 C1.42600325 4.27800976 -0.54362936 6.86765922 -2.4375 10.6875 C-2.77587891 11.38939453 -3.11425781 12.09128906 -3.46289062 12.81445312 C-4.29981348 14.54723706 -5.14877393 16.27419752 -6 18 C-7.15941038 14.52176885 -6.70820884 12.54104422 -6 9 C-5.34 9 -4.68 9 -4 9 C-2.68 6.03 -1.36 3.06 0 0 Z " fill="#391299" transform="translate(362,269)"/>
<path d="M0 0 C1.75 0.125 1.75 0.125 4 1 C5.40113616 2.95309888 6.73339467 4.95708818 8 7 C9.62351109 8.79394446 9.62351109 8.79394446 11 10 C10.67 10.66 10.34 11.32 10 12 C8.32737283 10.38113585 6.66204463 8.7547271 5 7.125 C4.071875 6.22007812 3.14375 5.31515625 2.1875 4.3828125 C0 2 0 2 0 0 Z " fill="#4EB3E7" transform="translate(207,260)"/>
<path d="M0 0 C-1.24663331 0.50833591 -2.49749387 1.00631145 -3.75 1.5 C-4.44609375 1.7784375 -5.1421875 2.056875 -5.859375 2.34375 C-8 3 -8 3 -12 3 C-12.33 3.99 -12.66 4.98 -13 6 C-14.65 5.67 -16.3 5.34 -18 5 C-15.53031367 2.53031367 -13.42511413 1.93002031 -10.125 0.8125 C-9.07570312 0.44769531 -8.02640625 0.08289063 -6.9453125 -0.29296875 C-4.06405115 -0.98462433 -2.72213388 -1.03230681 0 0 Z " fill="#3D139E" transform="translate(221,114)"/>
<path d="M0 0 C1.109375 1.75390625 1.109375 1.75390625 2 4 C1.390625 5.96484375 1.390625 5.96484375 0.25 7.9375 C-0.1315625 8.62714844 -0.513125 9.31679687 -0.90625 10.02734375 C-1.2671875 10.67832031 -1.628125 11.32929688 -2 12 C-2.69040574 13.65697379 -3.36971413 15.31923769 -4 17 C-5.3274855 13.01754349 -3.99907829 10.55210457 -2.5625 6.8125 C-2.19801758 5.83120117 -2.19801758 5.83120117 -1.82617188 4.83007812 C-1.2256707 3.21696714 -0.61390797 1.6080565 0 0 Z " fill="#3C11A3" transform="translate(138,183)"/>
<path d="M0 0 C3.45854519 3.45854519 4 7.21904213 4 12 C2.0625 11.6875 2.0625 11.6875 0 11 C-1.11393093 7.65820721 -0.75376997 6.35008877 0 3 C0 2.01 0 1.02 0 0 Z " fill="#3C0DA2" transform="translate(361,185)"/>
<path d="M0 0 C1.39195915 4.17587745 -0.17676781 6.13474776 -2 10 C-2.66 10 -3.32 10 -4 10 C-4 10.66 -4 11.32 -4 12 C-4.66 12 -5.32 12 -6 12 C-4.43358249 7.69235185 -2.31663844 3.93828536 0 0 Z " fill="#381398" transform="translate(335,272)"/>
<path d="M0 0 C2.31 0.33 4.62 0.66 7 1 C6 3 6 3 3.625 4.125 C1 5 1 5 -2 5 C-2 4.01 -2 3.02 -2 2 C-1.34 2 -0.68 2 0 2 C0 1.34 0 0.68 0 0 Z " fill="#48B1F0" transform="translate(269,274)"/>
<path d="M0 0 C0.66 0.33 1.32 0.66 2 1 C1.34 5.62 0.68 10.24 0 15 C-0.33 15 -0.66 15 -1 15 C-1.02693575 12.87506859 -1.04636628 10.75004088 -1.0625 8.625 C-1.07410156 7.44164062 -1.08570313 6.25828125 -1.09765625 5.0390625 C-1 2 -1 2 0 0 Z " fill="#3D1299" transform="translate(368,240)"/>
<path d="M0 0 C-0.66 0 -1.32 0 -2 0 C-2 0.66 -2 1.32 -2 2 C-5.20015856 3.06671952 -6.88544294 2.94845472 -10.1875 2.5625 C-11.08855469 2.46066406 -11.98960937 2.35882813 -12.91796875 2.25390625 C-13.60503906 2.17011719 -14.29210937 2.08632813 -15 2 C-15 1.67 -15 1.34 -15 1 C-13.25215171 0.63536268 -11.50159498 0.2836922 -9.75 -0.0625 C-8.28820312 -0.35833984 -8.28820312 -0.35833984 -6.796875 -0.66015625 C-4.131881 -0.98397535 -2.51128277 -0.85503199 0 0 Z " fill="#3A1598" transform="translate(275,323)"/>
<path d="M0 0 C0.33 0 0.66 0 1 0 C1.625 2.8125 1.625 2.8125 2 6 C1.01 7.485 1.01 7.485 0 9 C-0.99 9 -1.98 9 -3 9 C-2.01 6.03 -1.02 3.06 0 0 Z " fill="#3B0EA3" transform="translate(142,174)"/>
<path d="M0 0 C0.66 0.33 1.32 0.66 2 1 C-0.31 3.64 -2.62 6.28 -5 9 C-5.66 8.01 -6.32 7.02 -7 6 C-4.69 4.02 -2.38 2.04 0 0 Z " fill="#361295" transform="translate(178,164)"/>
<path d="M0 0 C0.66 0.33 1.32 0.66 2 1 C-0.31 3.31 -2.62 5.62 -5 8 C-5.99 7.67 -6.98 7.34 -8 7 C-5.36 4.69 -2.72 2.38 0 0 Z " fill="#36119B" transform="translate(179,131)"/>
<path d="M0 0 C0.66 0.33 1.32 0.66 2 1 C0.02 3.31 -1.96 5.62 -4 8 C-4.33 7.01 -4.66 6.02 -5 5 C-4.34 5 -3.68 5 -3 5 C-2.87625 4.360625 -2.7525 3.72125 -2.625 3.0625 C-2.41875 2.381875 -2.2125 1.70125 -2 1 C-1.34 0.67 -0.68 0.34 0 0 Z " fill="#3A109F" transform="translate(342,304)"/>
<path d="M0 0 C0.99 0.33 1.98 0.66 3 1 C-2.875 6 -2.875 6 -4 6 C-4 4.35 -4 2.7 -4 1 C-2.68 1.33 -1.36 1.66 0 2 C0 1.34 0 0.68 0 0 Z " fill="#48B5E9" transform="translate(285,266)"/>
<path d="M0 0 C0.66 0 1.32 0 2 0 C2.33 0.99 2.66 1.98 3 3 C1.35 4.65 -0.3 6.3 -2 8 C-2 6.68 -2 5.36 -2 4 C-1.34 4 -0.68 4 0 4 C-0.33 3.01 -0.66 2.02 -1 1 C-0.67 0.67 -0.34 0.34 0 0 Z " fill="#4AB3F0" transform="translate(290,258)"/>
<path d="M0 0 C-1.65 1.65 -3.3 3.3 -5 5 C-5 3.68 -5 2.36 -5 1 C-5.66 0.67 -6.32 0.34 -7 0 C-4.3333581 -1.33332095 -2.83319697 -0.67102033 0 0 Z " fill="#3C0EA3" transform="translate(336,313)"/>
<path d="M0 0 C0.33 1.65 0.66 3.3 1 5 C-3.875 3.25 -3.875 3.25 -5 1 C-2 0 -2 0 0 0 Z " fill="#3A0F9E" transform="translate(307,148)"/>
</svg>
