<?xml version="1.0" encoding="UTF-8"?>
<svg version="1.1" xmlns="http://www.w3.org/2000/svg" width="500" height="500">
<path d="M0 0 C0.83917969 0.67546875 1.67835938 1.3509375 2.54296875 2.046875 C23.20789762 19.60405488 34.62956816 45.30145196 37 72 C38.93851898 99.46690279 28.76423393 125.2870736 11 146 C-5.35212406 164.5989808 -28.36879779 176.24891583 -53 179 C-80.62437766 180.60739888 -106.9488378 174.43971071 -128.5078125 156.23828125 C-149.20729 137.64768469 -163.4184103 114.10446746 -165.140625 85.67895508 C-165.81846765 68.03301641 -163.8450083 51.99680463 -156 36 C-155.49726563 34.95585937 -154.99453125 33.91171875 -154.4765625 32.8359375 C-141.83410296 7.96649831 -121.35233716 -8.6736305 -95.4765625 -18.3125 C-62.64051668 -28.72206231 -26.59279813 -21.6712694 0 0 Z M-126 28 C-140.48144161 45.60653113 -144.92663738 66.74813434 -143 89 C-142.21639282 94.51402681 -140.76710351 99.7170331 -139 105 C-138.69964844 105.928125 -138.39929688 106.85625 -138.08984375 107.8125 C-130.7690099 128.09532972 -114.39653818 142.50053406 -95.37890625 151.49609375 C-77.01741757 159.66854825 -55.99652406 160.15955927 -37.125 153.30859375 C-16.02495915 144.47295164 0.57839064 130.24627636 9.52734375 108.87109375 C17.73962076 87.89828315 17.03455203 65.90102992 8.4296875 45.05078125 C-0.66627578 25.64108912 -17.19957206 10.8659897 -37 3 C-41.30114674 1.68563482 -45.56557411 0.73101571 -50 0 C-50.9590625 -0.18175781 -51.918125 -0.36351562 -52.90625 -0.55078125 C-81.25352641 -4.66686305 -107.23635536 6.82689858 -126 28 Z " fill="#FAFEFD" transform="translate(314,149)"/>
<path d="M0 0 C9.69816929 8.11939755 16.79446133 18.36373168 18.24804688 31.18847656 C19.34308766 45.99613479 16.41666499 57.65880279 7.16015625 69.5625 C-1.38925828 79.20957896 -13.13753351 85.02398628 -26 86 C-39.88777147 86.13582173 -51.40091867 81.89219004 -61.6875 72.5625 C-62.450625 71.716875 -63.21375 70.87125 -64 70 C-64.48082031 69.52304687 -64.96164063 69.04609375 -65.45703125 68.5546875 C-74.59461166 58.9775779 -76.40192862 46.9252199 -76.21484375 34.2734375 C-75.74587071 20.93829117 -68.55101898 9.91428438 -59 1 C-40.82878559 -12.38931588 -18.59624524 -12.4879895 0 0 Z " fill="#FDFEFE" transform="translate(279,189)"/>
<path d="M0 0 C0.33 3.3 0.66 6.6 1 10 C3.97 10 6.94 10 10 10 C10.33 6.7 10.66 3.4 11 0 C13.3260857 -0.38063221 15.66055264 -0.71269945 18 -1 C19.88319268 0.88319268 19.13054285 4.11930137 19.1328125 6.625 C19.13424759 7.61814209 19.13424759 7.61814209 19.13571167 8.63134766 C19.13639326 10.03352961 19.13454042 11.4357147 19.13037109 12.83789062 C19.12502246 14.99095713 19.1303167 17.14381502 19.13671875 19.296875 C19.13605796 20.65625046 19.13477679 22.0156258 19.1328125 23.375 C19.13168457 24.62023437 19.13055664 25.86546875 19.12939453 27.1484375 C19 30 19 30 18 31 C15.66055264 30.71269945 13.3260857 30.38063221 11 30 C11 26.37 11 22.74 11 19 C6.05 19.495 6.05 19.495 1 20 C1 23.3 1 26.6 1 30 C-2.67568464 30.91892116 -4.16380575 30.95904856 -8 30 C-8 20.1 -8 10.2 -8 0 C-5.13822943 -1.43088528 -3.06624227 -0.59991697 0 0 Z " fill="#F8FEFD" transform="translate(296,339)"/>
<path d="M0 0 C2.44030524 2.08143682 3.80883267 3.88768371 5.125 6.8125 C4.795 7.8025 4.465 8.7925 4.125 9.8125 C0.75 10 0.75 10 -2.875 9.8125 C-3.535 8.8225 -4.195 7.8325 -4.875 6.8125 C-7.45880177 6.56219023 -7.45880177 6.56219023 -9.875 6.8125 C-9.875 7.8025 -9.875 8.7925 -9.875 9.8125 C-9.12734375 10.04324219 -8.3796875 10.27398437 -7.609375 10.51171875 C0.3859486 13.15938481 0.3859486 13.15938481 3.8125 16.1875 C5.43546531 19.43343062 5.72251829 21.22739024 5.125 24.8125 C3.32506226 27.51240662 2.041227 29.3543865 -0.875 30.8125 C-2.80859586 30.96101844 -4.74842097 31.03380833 -6.6875 31.0625 C-7.72519531 31.08828125 -8.76289063 31.1140625 -9.83203125 31.140625 C-13.27471315 30.76939871 -15.09987339 29.84199651 -17.875 27.8125 C-19.91171629 24.80591882 -19.875 23.62153404 -19.875 19.8125 C-18.59625 19.750625 -17.3175 19.68875 -16 19.625 C-14.92105469 19.57279297 -14.92105469 19.57279297 -13.8203125 19.51953125 C-13.17835938 19.61621094 -12.53640625 19.71289062 -11.875 19.8125 C-11.215 20.8025 -10.555 21.7925 -9.875 22.8125 C-6.80943402 23.54593428 -6.80943402 23.54593428 -3.875 23.8125 C-3.875 22.8225 -3.875 21.8325 -3.875 20.8125 C-4.69484375 20.50957031 -5.5146875 20.20664062 -6.359375 19.89453125 C-7.43703125 19.47558594 -8.5146875 19.05664062 -9.625 18.625 C-10.69234375 18.21894531 -11.7596875 17.81289063 -12.859375 17.39453125 C-16.24957309 15.61599469 -17.85754376 14.04924411 -19.875 10.8125 C-20.29124747 7.97161102 -19.80344653 5.52144842 -18.875 2.8125 C-14.02430416 -2.1998857 -6.20745219 -2.56394764 0 0 Z " fill="#F1FDFD" transform="translate(278.875,339.1875)"/>
<path d="M0 0 C3.56447838 1.41046026 5.97501667 3.03597084 7.69140625 6.46875 C8.73503571 10.49417792 8.93374513 12.76865992 7.56640625 16.71875 C5.08794911 20.35382047 2.96375231 22.03793346 -1.41015625 22.8671875 C-3.36982307 23.12339836 -5.33930803 23.30186138 -7.30859375 23.46875 C-7.43234375 24.603125 -7.55609375 25.7375 -7.68359375 26.90625 C-7.88984375 28.081875 -8.09609375 29.2575 -8.30859375 30.46875 C-11.04106723 31.83498674 -13.29058277 31.597176 -16.30859375 31.46875 C-17.30859375 30.46875 -17.30859375 30.46875 -17.42211914 27.60131836 C-17.41688232 26.34971924 -17.41164551 25.09812012 -17.40625 23.80859375 C-17.40483505 23.14412735 -17.4034201 22.47966095 -17.40196228 21.7950592 C-17.39634893 19.66541101 -17.38379429 17.53586661 -17.37109375 15.40625 C-17.36608046 13.96549631 -17.36151726 12.52474097 -17.35742188 11.08398438 C-17.3463752 7.54553898 -17.32910167 4.00715461 -17.30859375 0.46875 C-12.51222576 -1.92943399 -5.12344807 -1.1789999 0 0 Z M-8.30859375 7.46875 C-9.66299043 10.17754335 -9.37360826 12.47808268 -9.30859375 15.46875 C-5.89203351 15.63552282 -5.89203351 15.63552282 -2.30859375 15.46875 C-1.64859375 14.80875 -0.98859375 14.14875 -0.30859375 13.46875 C-0.59842644 10.16191534 -0.59842644 10.16191534 -2.30859375 7.46875 C-4.30817739 7.42794217 -6.30904629 7.42620644 -8.30859375 7.46875 Z " fill="#F7FDFD" transform="translate(217.30859375,338.53125)"/>
<path d="M0 0 C2.64 0 5.28 0 8 0 C8.01458252 0.59014893 8.02916504 1.18029785 8.04418945 1.78833008 C8.11868844 4.46371229 8.21533995 7.13784892 8.3125 9.8125 C8.33505859 10.74126953 8.35761719 11.67003906 8.38085938 12.62695312 C8.41630859 13.51962891 8.45175781 14.41230469 8.48828125 15.33203125 C8.51446533 16.15421143 8.54064941 16.9763916 8.56762695 17.82348633 C9.0908518 20.45733698 9.86726263 21.4058951 12 23 C14.13803054 22.92393164 14.13803054 22.92393164 16 22 C17.17469444 19.65061112 17.20034889 18.04926795 17.31640625 15.4296875 C17.35830078 14.53378906 17.40019531 13.63789063 17.44335938 12.71484375 C17.48267578 11.77769531 17.52199219 10.84054687 17.5625 9.875 C17.60568359 8.93011719 17.64886719 7.98523438 17.69335938 7.01171875 C17.79959072 4.67462908 17.90163176 2.3374317 18 0 C20.64 0 23.28 0 26 0 C26.08761663 3.54150893 26.14059739 7.08273633 26.1875 10.625 C26.21263672 11.62402344 26.23777344 12.62304688 26.26367188 13.65234375 C26.31878427 19.20032504 26.19543888 23.23392167 23 28 C19.0993745 31.6568364 14.6969476 31.49663722 9.59765625 31.359375 C6.07430762 30.87193429 4.33929223 29.64113639 2 27 C-2.31656852 20.52514721 -1.42858114 10.57580189 -1 3 C-0.67 2.01 -0.34 1.02 0 0 Z " fill="#F3FDFD" transform="translate(229,339)"/>
<path d="M0 0 C3.36706504 0.94348583 5.10101308 2.94600738 7.23046875 5.625 C7.88015625 4.6659375 7.88015625 4.6659375 8.54296875 3.6875 C10.23046875 1.625 10.23046875 1.625 13.23046875 0.625 C20.2865357 -0.05784519 20.2865357 -0.05784519 24.16796875 2.75 C26.48305213 5.97708593 27.23046875 7.66260154 27.23046875 11.625 C25.70173004 15.59972063 24.80266378 17.24353665 21.23046875 19.625 C12.37504706 20.187249 12.37504706 20.187249 9.23046875 17.625 C7.48046875 14.5 7.48046875 14.5 6.23046875 11.625 C5.63314056 14.38764289 5.23046875 16.78532769 5.23046875 19.625 C3.58046875 19.625 1.93046875 19.625 0.23046875 19.625 C-0.42953125 17.975 -1.08953125 16.325 -1.76953125 14.625 C-2.42953125 14.625 -3.08953125 14.625 -3.76953125 14.625 C-4.09953125 16.275 -4.42953125 17.925 -4.76953125 19.625 C-6.41953125 19.295 -8.06953125 18.965 -9.76953125 18.625 C-9.85024913 15.83275927 -9.90988533 13.04283434 -9.95703125 10.25 C-9.98216797 9.4559375 -10.00730469 8.661875 -10.03320312 7.84375 C-10.0595753 5.76913852 -9.92439587 3.69399135 -9.76953125 1.625 C-6.02321782 -0.87254229 -4.30789016 -0.56220426 0 0 Z M-3.76953125 5.625 C-3.76953125 6.945 -3.76953125 8.265 -3.76953125 9.625 C-2.44953125 9.295 -1.12953125 8.965 0.23046875 8.625 C-0.09953125 7.635 -0.42953125 6.645 -0.76953125 5.625 C-1.75953125 5.625 -2.74953125 5.625 -3.76953125 5.625 Z M15.23046875 5.625 C13.51231437 7.87667846 13.51231437 7.87667846 12.23046875 10.625 C12.92187226 12.92787793 12.92187226 12.92787793 14.23046875 14.625 C16.64692657 14.79187448 16.64692657 14.79187448 19.23046875 14.625 C19.89046875 13.965 20.55046875 13.305 21.23046875 12.625 C20.90847909 9.52573181 20.90847909 9.52573181 20.23046875 6.625 C18.58046875 6.295 16.93046875 5.965 15.23046875 5.625 Z " fill="#EEFDFE" transform="translate(306.76953125,383.375)"/>
<path d="M0 0 C2.1875 1.6875 2.1875 1.6875 3 4 C2.1875 6.75 2.1875 6.75 1 9 C1.66 9.66 2.32 10.32 3 11 C2.54545455 16.45454545 2.54545455 16.45454545 0 19 C-7.0578999 19.68302257 -7.0578999 19.68302257 -10.5 17.1875 C-12 15 -12 15 -12 12 C-11.01 11.67 -10.02 11.34 -9 11 C-9.515625 10.46375 -10.03125 9.9275 -10.5625 9.375 C-12 7 -12 7 -11.8125 3.8125 C-11.544375 2.884375 -11.27625 1.95625 -11 1 C-7.5524961 -0.72375195 -3.76995659 -0.49532276 0 0 Z M-6 5 C-5.01 5.99 -4.02 6.98 -3 8 C-2.01 7.67 -1.02 7.34 0 7 C-2.81509993 4.7226499 -2.81509993 4.7226499 -6 5 Z M-7 12 C-6.01 13.485 -6.01 13.485 -5 15 C-4.01 14.67 -3.02 14.34 -2 14 C-2.33 13.34 -2.66 12.68 -3 12 C-4.32 12 -5.64 12 -7 12 Z " fill="#EDFDFD" transform="translate(254,384)"/>
<path d="M0 0 C1.9375 1.8125 1.9375 1.8125 3 4 C2.6875 6.25 2.6875 6.25 2 8 C-0.31 7.34 -2.62 6.68 -5 6 C-3.865625 6.350625 -2.73125 6.70125 -1.5625 7.0625 C0.36328125 7.87890625 0.36328125 7.87890625 2 9 C3.125 12.5 3.125 12.5 3 16 C2 17.9375 2 17.9375 0 19 C-3.69874368 19.40349931 -6.10051952 19.46127204 -9.4375 17.75 C-11 16 -11 16 -11 12 C-10.34 11.67 -9.68 11.34 -9 11 C-9.66 10.34 -10.32 9.68 -11 9 C-11.4375 5.5625 -11.4375 5.5625 -11 2 C-7.42715391 -1.36267867 -4.57506292 -1.49186834 0 0 Z M-7 12 C-6.01 13.485 -6.01 13.485 -5 15 C-4.01 14.67 -3.02 14.34 -2 14 C-2.33 13.34 -2.66 12.68 -3 12 C-4.32 12 -5.64 12 -7 12 Z " fill="#EDFDFD" transform="translate(230,384)"/>
<path d="M0 0 C2 1.25 2 1.25 3 3 C3 4.32 3 5.64 3 7 C0.36 6.67 -2.28 6.34 -5 6 C-2.36 7.32 0.28 8.64 3 10 C3.1875 13.375 3.1875 13.375 3 17 C-0.71013399 19.47342266 -2.61060262 19.38503486 -7 19 C-9.4375 17.75 -9.4375 17.75 -11 16 C-11 14.68 -11 13.36 -11 12 C-10.01 11.67 -9.02 11.34 -8 11 C-8.495 10.62875 -8.99 10.2575 -9.5 9.875 C-11 8 -11 8 -11.375 4.9375 C-11.25125 3.968125 -11.1275 2.99875 -11 2 C-7.20110294 -0.53259804 -4.45573417 -0.60338067 0 0 Z M-6 12 C-5.67 12.99 -5.34 13.98 -5 15 C-4.01 14.67 -3.02 14.34 -2 14 C-2.33 13.34 -2.66 12.68 -3 12 C-3.99 12 -4.98 12 -6 12 Z " fill="#F0FDFD" transform="translate(214,384)"/>
<path d="M0 0 C4.28571429 2.28571429 4.28571429 2.28571429 6 4 C6.39777846 7.58000612 6.46888241 9.35745744 4.3125 12.3125 C1.80401508 14.14301602 0.05917167 14.66009204 -3 15 C-3.33 16.32 -3.66 17.64 -4 19 C-5.65 19 -7.3 19 -9 19 C-9.19425873 16.20865148 -9.38069517 13.41716313 -9.5625 10.625 C-9.61857422 9.8309375 -9.67464844 9.036875 -9.73242188 8.21875 C-10.11328125 2.2265625 -10.11328125 2.2265625 -9 0 C-5.4208653 -1.1930449 -3.64388859 -0.87453326 0 0 Z M-3 5 C-3 6.32 -3 7.64 -3 9 C-2.01 9 -1.02 9 0 9 C-0.33 7.68 -0.66 6.36 -1 5 C-1.66 5 -2.32 5 -3 5 Z " fill="#F4FDFC" transform="translate(290,384)"/>
<path d="M0 0 C1.2065625 0.0309375 1.2065625 0.0309375 2.4375 0.0625 C3.44608422 2.47589796 4.44452673 4.89268675 5.4375 7.3125 C5.72367188 7.99441406 6.00984375 8.67632812 6.3046875 9.37890625 C7.73095494 12.87665735 8.4375 15.23150189 8.4375 19.0625 C4.35371717 18.31999403 0.41810777 17.23326699 -3.5625 16.0625 C-3.8925 17.0525 -4.2225 18.0425 -4.5625 19.0625 C-6.2125 19.0625 -7.8625 19.0625 -9.5625 19.0625 C-8.97499992 14.6095164 -7.82931981 10.87429158 -6.0625 6.75 C-5.6190625 5.70199219 -5.175625 4.65398437 -4.71875 3.57421875 C-3.10828586 0.07581185 -3.10828586 0.07581185 0 0 Z M-1.5625 9.0625 C-1.2325 10.0525 -0.9025 11.0425 -0.5625 12.0625 C-0.2325 11.0725 0.0975 10.0825 0.4375 9.0625 C-0.2225 9.0625 -0.8825 9.0625 -1.5625 9.0625 Z " fill="#F0FDFD" transform="translate(193.5625,383.9375)"/>
<path d="M0 0 C5.61 0 11.22 0 17 0 C17 1.65 17 3.3 17 5 C15.35 5 13.7 5 12 5 C12 9.29 12 13.58 12 18 C10.35 18.33 8.7 18.66 7 19 C6 18 6 18 5.90234375 15.27734375 C5.91394531 14.17519531 5.92554688 13.07304687 5.9375 11.9375 C5.94652344 10.83277344 5.95554687 9.72804688 5.96484375 8.58984375 C5.97644531 7.73519531 5.98804688 6.88054687 6 6 C4.35 5.67 2.7 5.34 1 5 C0.67 3.35 0.34 1.7 0 0 Z " fill="#EEFEFE" transform="translate(257,384)"/>
<path d="M0 0 C1.65 0 3.3 0 5 0 C6.2062252 3.61867559 6.10816918 6.92506251 6.0625 10.6875 C6.05798828 11.38939453 6.05347656 12.09128906 6.04882812 12.81445312 C6.03706927 14.54300538 6.01913454 16.27151365 6 18 C4.34385343 18.38218767 2.67542976 18.71395102 1 19 C0 18 0 18 -0.11352539 16.23413086 C-0.10828857 15.48526611 -0.10305176 14.73640137 -0.09765625 13.96484375 C-0.09443359 13.15595703 -0.09121094 12.34707031 -0.08789062 11.51367188 C-0.07951172 10.66353516 -0.07113281 9.81339844 -0.0625 8.9375 C-0.05798828 8.08349609 -0.05347656 7.22949219 -0.04882812 6.34960938 C-0.03700373 4.23304337 -0.01906769 2.11651315 0 0 Z " fill="#EAFEFE" transform="translate(235,384)"/>
<path d="M0 0 C0.02465622 4.25414623 0.04283899 8.50825498 0.05493164 12.76245117 C0.05997101 14.21070073 0.06680253 15.65894517 0.07543945 17.10717773 C0.08752247 19.18474588 0.09323211 21.26224697 0.09765625 23.33984375 C0.10289307 24.59144287 0.10812988 25.84304199 0.11352539 27.13256836 C0 30 0 30 -1 31 C-3.33944736 30.71269945 -5.6739143 30.38063221 -8 30 C-8 26.37 -8 22.74 -8 19 C-7.34 19 -6.68 19 -6 19 C-5.67 22.3 -5.34 25.6 -5 29 C-4.01 29.33 -3.02 29.66 -2 30 C-2 20.43 -2 10.86 -2 1 C-3.32 1.33 -4.64 1.66 -6 2 C-6.33 4.97 -6.66 7.94 -7 11 C-7.66 10.67 -8.32 10.34 -9 10 C-8.67 6.7 -8.34 3.4 -8 0 C-4.29847322 -0.92538169 -3.36541838 -1.08174162 0 0 Z " fill="#E3FEFF" transform="translate(315,339)"/>
<path d="M0 0 C2.8125 0.1875 2.8125 0.1875 6 1 C7.75 3.5 7.75 3.5 9 6 C9.66 6.33 10.32 6.66 11 7 C9.49200916 11.52397252 8.31617863 14.60212298 4 17 C0.88810534 17.24895157 -1.19084526 17.40457737 -4 16 C-4 15.34 -4 14.68 -4 14 C-1.03 13.34 1.94 12.68 5 12 C5.43963608 7.25409437 5.43963608 7.25409437 3.625 3.0625 C2.04459814 1.81758355 2.04459814 1.81758355 0 2 C0 1.34 0 0.68 0 0 Z " fill="#FAFDFD" transform="translate(323,385)"/>
<path d="M0 0 C0 1.65 0 3.3 0 5 C1.32 5 2.64 5 4 5 C3.67 5.66 3.34 6.32 3 7 C2.34 7 1.68 7 1 7 C0.34 7.66 -0.32 8.32 -1 9 C-1.33 7.68 -1.66 6.36 -2 5 C-2 8.96 -2 12.92 -2 17 C-1.34 16.67 -0.68 16.34 0 16 C0 17.32 0 18.64 0 20 C-1.65 20 -3.3 20 -5 20 C-5.19425873 17.20865148 -5.38069517 14.41716313 -5.5625 11.625 C-5.61857422 10.8309375 -5.67464844 10.036875 -5.73242188 9.21875 C-6.11328125 3.2265625 -6.11328125 3.2265625 -5 1 C-2 0 -2 0 0 0 Z " fill="#E5FEFE" transform="translate(286,383)"/>
<path d="M0 0 C0.66 0.99 1.32 1.98 2 3 C0.29101326 4.70898674 -1.41819904 6.41773486 -3.12890625 8.125 C-4.63713727 9.63637972 -6.13305948 11.16003709 -7.625 12.6875 C-14.10810811 19 -14.10810811 19 -17 19 C-17 19.66 -17 20.32 -17 21 C-18.98 21.66 -20.96 22.32 -23 23 C-19.94087277 19.73693095 -16.75196163 17.0201727 -13.1875 14.3125 C-7.90747635 10.1723915 -3.95390372 5.38967881 0 0 Z " fill="#E8FEFE" transform="translate(315,272)"/>
<path d="M0 0 C0.99 0.33 1.98 0.66 3 1 C3.1875 4.375 3.1875 4.375 3 8 C-0.71013399 10.47342266 -2.61060262 10.38503486 -7 10 C-9.4375 8.75 -9.4375 8.75 -11 7 C-11 5.68 -11 4.36 -11 3 C-10.01 3.33 -9.02 3.66 -8 4 C-8 4.99 -8 5.98 -8 7 C-7.34 7 -6.68 7 -6 7 C-5.67 6.34 -5.34 5.68 -5 5 C-4.34 5 -3.68 5 -3 5 C-2.34 4.34 -1.68 3.68 -1 3 C-1.33 4.32 -1.66 5.64 -2 7 C-1.01 7.33 -0.02 7.66 1 8 C0.67 5.36 0.34 2.72 0 0 Z " fill="#DEFEFE" transform="translate(214,393)"/>
<path d="M0 0 C0.33 0 0.66 0 1 0 C1.125 2.375 1.125 2.375 1 5 C-1 7 -1 7 -3.8125 7.3125 C-7.36852749 6.96386985 -9.21309325 6.21313183 -12 4 C-12 3.01 -12 2.02 -12 1 C-9.625 0.875 -9.625 0.875 -7 1 C-6.34 1.66 -5.68 2.32 -5 3 C-2.93125966 3.6425235 -2.93125966 3.6425235 -1 4 C-0.67 2.68 -0.34 1.36 0 0 Z " fill="#F2FEFD" transform="translate(254,395)"/>
<path d="M0 0 C2.60338274 2.60338274 2.66632549 4.53160335 3.375 8.125 C4.42256623 12.9780109 5.74448627 16.8985059 8.1484375 21.2109375 C9.51849219 24.08930927 9.73688272 26.84259266 10 30 C3.81392177 22.56949204 -0.60838648 9.73418367 0 0 Z " fill="#E4FEFE" transform="translate(151,244)"/>
<path d="M0 0 C0.66 0.33 1.32 0.66 2 1 C1.52949219 1.97839844 1.05898437 2.95679688 0.57421875 3.96484375 C-2.71972228 10.87815131 -5.80569075 17.64261017 -8 25 C-8.33 25 -8.66 25 -9 25 C-8.67 21.7 -8.34 18.4 -8 15 C-7.34 15 -6.68 15 -6 15 C-5.34 12.03 -4.68 9.06 -4 6 C-3.34 6 -2.68 6 -2 6 C-1.855625 5.195625 -1.71125 4.39125 -1.5625 3.5625 C-1 1 -1 1 0 0 Z " fill="#E7FEFE" transform="translate(181,184)"/>
<path d="M0 0 C2.64 0 5.28 0 8 0 C8 6.27 8 12.54 8 19 C7.67 19 7.34 19 7 19 C6.67 13.39 6.34 7.78 6 2 C4.35 2 2.7 2 1 2 C1 2.66 1 3.32 1 4 C0.34 3.67 -0.32 3.34 -1 3 C-0.67 2.01 -0.34 1.02 0 0 Z " fill="#DBFFFF" transform="translate(229,339)"/>
<path d="M0 0 C-0.8125 1.9375 -0.8125 1.9375 -2 4 C-2.99 4.33 -3.98 4.66 -5 5 C-5 5.66 -5 6.32 -5 7 C-5.7425 7.721875 -6.485 8.44375 -7.25 9.1875 C-10.30142598 12.30827657 -11.96946943 15.16455337 -14 19 C-14.33 18.34 -14.66 17.68 -15 17 C-12.62675644 11.76546682 -6.62022435 0 0 0 Z " fill="#E3FDFF" transform="translate(222,190)"/>
<path d="M0 0 C0 0.33 0 0.66 0 1 C-1.216875 1.04125 -2.43375 1.0825 -3.6875 1.125 C-7.21271475 1.53199637 -8.75280133 2.31016733 -11 5.0625 C-11.66 6.031875 -12.32 7.00125 -13 8 C-13.99 7.67 -14.98 7.34 -16 7 C-15.875 5.1875 -15.875 5.1875 -15 3 C-10.12409464 -0.41313375 -5.70559087 -0.34233545 0 0 Z " fill="#E9FEFE" transform="translate(276,338)"/>
<path d="M0 0 C4.41924248 1.33552659 5.96911134 2.86643711 8.1875 6.875 C8.67605469 7.73867188 9.16460937 8.60234375 9.66796875 9.4921875 C10.8123288 11.64667181 11.92538896 13.81003436 13 16 C7.41953003 11.64723342 3.53406321 7.14901108 0 1 C0 0.67 0 0.34 0 0 Z " fill="#E7FEFE" transform="translate(165,281)"/>
<path d="M0 0 C1.134375 0.020625 2.26875 0.04125 3.4375 0.0625 C4.0975 1.3825 4.7575 2.7025 5.4375 4.0625 C2.7975 3.7325 0.1575 3.4025 -2.5625 3.0625 C-2.5625 4.3825 -2.5625 5.7025 -2.5625 7.0625 C-3.2225 7.0625 -3.8825 7.0625 -4.5625 7.0625 C-4.60504356 5.06295254 -4.60330783 3.06208364 -4.5625 1.0625 C-3.5625 0.0625 -3.5625 0.0625 0 0 Z " fill="#FAFDFC" transform="translate(209.5625,384.9375)"/>
<path d="M0 0 C1.66666667 0 3.33333333 0 5 0 C5 1.98 5 3.96 5 6 C3.34385343 6.38218767 1.67542976 6.71395102 0 7 C-1 6 -1 6 -1.125 3.5 C-1 1 -1 1 0 0 Z " fill="#E4FDFE" transform="translate(298,396)"/>
<path d="M0 0 C3.24271506 0.5590888 4.93057424 1.4132178 7 4 C7 4.66 7 5.32 7 6 C4.69 6 2.38 6 0 6 C-1.125 2.25 -1.125 2.25 0 0 Z " fill="#FAFDFB" transform="translate(277,342)"/>
<path d="M0 0 C7.41641337 -0.36474164 7.41641337 -0.36474164 10 1.25 C11 3 11 3 11 7 C7.65626525 6.44271087 4.96687001 5.64826111 2 4 C4.31 4.33 6.62 4.66 9 5 C8.34 4.01 7.68 3.02 7 2 C3.43230448 1.26393501 3.43230448 1.26393501 0 1 C0 0.67 0 0.34 0 0 Z " fill="#DDFEFE" transform="translate(206,384)"/>
<path d="M0 0 C0.66 0.33 1.32 0.66 2 1 C0.42617053 2.65492374 -1.15942902 4.29866024 -2.75 5.9375 C-3.63171875 6.85402344 -4.5134375 7.77054688 -5.421875 8.71484375 C-7.80176695 10.82429343 -8.9099375 11.66067071 -12 12 C-8.32167983 7.47384007 -4.58913637 3.60575001 0 0 Z " fill="#E8FEFF" transform="translate(189,146)"/>
<path d="M0 0 C0.99 0 1.98 0 3 0 C3.33 0.99 3.66 1.98 4 3 C4.66 3.33 5.32 3.66 6 4 C6.33 3.01 6.66 2.02 7 1 C7.66 2.32 8.32 3.64 9 5 C8 6 8 6 5.4375 6.0625 C4.2309375 6.0315625 4.2309375 6.0315625 3 6 C2.01 4.02 1.02 2.04 0 0 Z " fill="#DFFEFE" transform="translate(304,397)"/>
<path d="M0 0 C2 3 2 3 1.66015625 4.765625 C1.44230469 5.50296875 1.22445312 6.2403125 1 7 C0.7801777 9.24707241 0.59516013 11.49771238 0.4375 13.75 C0.35371094 14.92046875 0.26992187 16.0909375 0.18359375 17.296875 C0.12300781 18.18890625 0.06242188 19.0809375 0 20 C-0.33 20 -0.66 20 -1 20 C-1.02703562 17.41659616 -1.04685611 14.83347692 -1.0625 12.25 C-1.07087891 11.52039063 -1.07925781 10.79078125 -1.08789062 10.0390625 C-1.10391684 6.51329442 -0.95292713 3.38965084 0 0 Z " fill="#DFFEFE" transform="translate(204,215)"/>
<path d="M0 0 C0.33 0.66 0.66 1.32 1 2 C-4.36000789 4.25684543 -8.1977825 5.36263859 -14 5 C-10.98509443 2.99006295 -8.7850073 2.27376659 -5.3125 1.375 C-3.82169922 0.98441406 -3.82169922 0.98441406 -2.30078125 0.5859375 C-1.54152344 0.39257812 -0.78226563 0.19921875 0 0 Z " fill="#E1FEFE" transform="translate(229,128)"/>
<path d="M0 0 C0.33 0 0.66 0 1 0 C1.3227506 4.62609198 0.84450614 7.28026121 -2 11 C-2.66 11 -3.32 11 -4 11 C-2.7874262 7.27566618 -1.49140021 3.62197194 0 0 Z " fill="#E4FEFF" transform="translate(324,254)"/>
<path d="M0 0 C3 1 3 1 4.5625 3.8125 C5.036875 4.864375 5.51125 5.91625 6 7 C6.5878125 8.175625 6.5878125 8.175625 7.1875 9.375 C7.455625 9.91125 7.72375 10.4475 8 11 C4.38061905 8.35883012 2.01293477 6.02586954 0 2 C0 1.34 0 0.68 0 0 Z " fill="#E5FEFF" transform="translate(208,248)"/>
<path d="M0 0 C0.66 0 1.32 0 2 0 C2.33 3.3 2.66 6.6 3 10 C0.9375 8.375 0.9375 8.375 -1 6 C-0.75 2.75 -0.75 2.75 0 0 Z " fill="#E3FEFF" transform="translate(243,385)"/>
<path d="M0 0 C2.0625 1.75 2.0625 1.75 4 4 C3.75 6.25 3.75 6.25 3 8 C1.68 7.67 0.36 7.34 -1 7 C-1 6.34 -1 5.68 -1 5 C-0.01 5 0.98 5 2 5 C1.34 3.35 0.68 1.7 0 0 Z " fill="#DCFEFE" transform="translate(229,384)"/>
<path d="M0 0 C-4.75 4.875 -4.75 4.875 -7 6 C-7 4.35 -7 2.7 -7 1 C-4.53721199 -0.231394 -2.7204945 -0.07159196 0 0 Z " fill="#E9FEFF" transform="translate(207,338)"/>
<path d="M0 0 C0.66 0.33 1.32 0.66 2 1 C-0.31 3.64 -2.62 6.28 -5 9 C-5 4.61031544 -2.87194899 3.23094261 0 0 Z " fill="#EBFDFF" transform="translate(173,162)"/>
<path d="M0 0 C0.99 0.33 1.98 0.66 3 1 C-0.465 3.97 -0.465 3.97 -4 7 C-4 6.01 -4 5.02 -4 4 C-3.34 4 -2.68 4 -2 4 C-1.34 2.68 -0.68 1.36 0 0 Z " fill="#E1FEFF" transform="translate(191,171)"/>
<path d="" fill="#FFFFFF" transform="translate(0,0)"/>
</svg>
